<svg xmlns="http://www.w3.org/2000/svg" viewBox="0 0 1017 209" width="1017" height="209">
  <defs><linearGradient id="g" gradientUnits="userSpaceOnUse" x1="30" y1="0" x2="987" y2="0">
    <stop offset="0" stop-color="#7C6BFF"/><stop offset="1" stop-color="#FF4FBF"/>
  </linearGradient></defs>
  <rect width="1017" height="209" fill="#1b1a21"/>
  <g fill="url(#g)">
    <rect x="30" y="28" width="11" height="17" opacity="0.42"/>
    <rect x="41" y="28" width="11" height="17" opacity="1"/>
    <rect x="52" y="28" width="11" height="17" opacity="1"/>
    <rect x="558" y="28" width="11" height="17" opacity="0.42"/>
    <rect x="569" y="28" width="11" height="17" opacity="1"/>
    <rect x="580" y="28" width="11" height="17" opacity="1"/>
    <rect x="30" y="45" width="11" height="17" opacity="0.42"/>
    <rect x="41" y="45" width="11" height="17" opacity="1"/>
    <rect x="52" y="45" width="11" height="17" opacity="1"/>
    <rect x="558" y="45" width="11" height="17" opacity="0.42"/>
    <rect x="569" y="45" width="11" height="17" opacity="1"/>
    <rect x="580" y="45" width="11" height="17" opacity="1"/>
    <rect x="30" y="62" width="11" height="17" opacity="0.42"/>
    <rect x="41" y="62" width="11" height="17" opacity="1"/>
    <rect x="52" y="62" width="11" height="17" opacity="1"/>
    <rect x="85" y="62" width="11" height="17" opacity="0.42"/>
    <rect x="96" y="62" width="11" height="17" opacity="1"/>
    <rect x="107" y="62" width="11" height="17" opacity="1"/>
    <rect x="118" y="62" width="11" height="17" opacity="1"/>
    <rect x="129" y="62" width="11" height="17" opacity="1"/>
    <rect x="140" y="62" width="11" height="17" opacity="1"/>
    <rect x="151" y="62" width="11" height="17" opacity="1"/>
    <rect x="195" y="62" width="11" height="17" opacity="0.42"/>
    <rect x="206" y="62" width="11" height="17" opacity="1"/>
    <rect x="217" y="62" width="11" height="17" opacity="1"/>
    <rect x="228" y="62" width="11" height="17" opacity="1"/>
    <rect x="239" y="62" width="11" height="17" opacity="1"/>
    <rect x="250" y="62" width="11" height="17" opacity="1"/>
    <rect x="261" y="62" width="11" height="17" opacity="1"/>
    <rect x="272" y="62" width="11" height="17" opacity="1"/>
    <rect x="283" y="62" width="11" height="17" opacity="1"/>
    <rect x="294" y="62" width="11" height="17" opacity="1"/>
    <rect x="316" y="62" width="11" height="17" opacity="0.42"/>
    <rect x="327" y="62" width="11" height="17" opacity="1"/>
    <rect x="338" y="62" width="11" height="17" opacity="1"/>
    <rect x="393" y="62" width="11" height="17" opacity="0.42"/>
    <rect x="404" y="62" width="11" height="17" opacity="1"/>
    <rect x="415" y="62" width="11" height="17" opacity="1"/>
    <rect x="448" y="62" width="11" height="17" opacity="0.42"/>
    <rect x="459" y="62" width="11" height="17" opacity="1"/>
    <rect x="470" y="62" width="11" height="17" opacity="1"/>
    <rect x="481" y="62" width="11" height="17" opacity="1"/>
    <rect x="492" y="62" width="11" height="17" opacity="1"/>
    <rect x="503" y="62" width="11" height="17" opacity="1"/>
    <rect x="514" y="62" width="11" height="17" opacity="1"/>
    <rect x="525" y="62" width="11" height="17" opacity="1"/>
    <rect x="558" y="62" width="11" height="17" opacity="0.42"/>
    <rect x="569" y="62" width="11" height="17" opacity="1"/>
    <rect x="580" y="62" width="11" height="17" opacity="1"/>
    <rect x="602" y="62" width="11" height="17" opacity="0.42"/>
    <rect x="613" y="62" width="11" height="17" opacity="1"/>
    <rect x="624" y="62" width="11" height="17" opacity="1"/>
    <rect x="679" y="62" width="11" height="17" opacity="0.42"/>
    <rect x="690" y="62" width="11" height="17" opacity="1"/>
    <rect x="701" y="62" width="11" height="17" opacity="1"/>
    <rect x="723" y="62" width="11" height="17" opacity="0.42"/>
    <rect x="734" y="62" width="11" height="17" opacity="1"/>
    <rect x="745" y="62" width="11" height="17" opacity="1"/>
    <rect x="756" y="62" width="11" height="17" opacity="0.42"/>
    <rect x="767" y="62" width="11" height="17" opacity="1"/>
    <rect x="778" y="62" width="11" height="17" opacity="1"/>
    <rect x="789" y="62" width="11" height="17" opacity="1"/>
    <rect x="800" y="62" width="11" height="17" opacity="1"/>
    <rect x="822" y="62" width="11" height="17" opacity="0.42"/>
    <rect x="833" y="62" width="11" height="17" opacity="1"/>
    <rect x="844" y="62" width="11" height="17" opacity="1"/>
    <rect x="855" y="62" width="11" height="17" opacity="1"/>
    <rect x="866" y="62" width="11" height="17" opacity="1"/>
    <rect x="877" y="62" width="11" height="17" opacity="1"/>
    <rect x="888" y="62" width="11" height="17" opacity="1"/>
    <rect x="899" y="62" width="11" height="17" opacity="1"/>
    <rect x="910" y="62" width="11" height="17" opacity="1"/>
    <rect x="921" y="62" width="11" height="17" opacity="1"/>
    <rect x="932" y="62" width="11" height="17" opacity="1"/>
    <rect x="943" y="62" width="11" height="17" opacity="1"/>
    <rect x="954" y="62" width="11" height="17" opacity="1"/>
    <rect x="965" y="62" width="11" height="17" opacity="1"/>
    <rect x="30" y="79" width="11" height="17" opacity="0.42"/>
    <rect x="41" y="79" width="11" height="17" opacity="1"/>
    <rect x="52" y="79" width="11" height="17" opacity="1"/>
    <rect x="140" y="79" width="11" height="17" opacity="0.42"/>
    <rect x="151" y="79" width="11" height="17" opacity="1"/>
    <rect x="162" y="79" width="11" height="17" opacity="1"/>
    <rect x="250" y="79" width="11" height="17" opacity="0.42"/>
    <rect x="261" y="79" width="11" height="17" opacity="1"/>
    <rect x="272" y="79" width="11" height="17" opacity="1"/>
    <rect x="283" y="79" width="11" height="17" opacity="1"/>
    <rect x="316" y="79" width="11" height="17" opacity="0.42"/>
    <rect x="327" y="79" width="11" height="17" opacity="1"/>
    <rect x="338" y="79" width="11" height="17" opacity="1"/>
    <rect x="393" y="79" width="11" height="17" opacity="0.42"/>
    <rect x="404" y="79" width="11" height="17" opacity="1"/>
    <rect x="415" y="79" width="11" height="17" opacity="1"/>
    <rect x="437" y="79" width="11" height="17" opacity="0.42"/>
    <rect x="448" y="79" width="11" height="17" opacity="1"/>
    <rect x="459" y="79" width="11" height="17" opacity="1"/>
    <rect x="558" y="79" width="11" height="17" opacity="0.42"/>
    <rect x="569" y="79" width="11" height="17" opacity="1"/>
    <rect x="580" y="79" width="11" height="17" opacity="1"/>
    <rect x="602" y="79" width="11" height="17" opacity="0.42"/>
    <rect x="613" y="79" width="11" height="17" opacity="1"/>
    <rect x="624" y="79" width="11" height="17" opacity="1"/>
    <rect x="679" y="79" width="11" height="17" opacity="0.42"/>
    <rect x="690" y="79" width="11" height="17" opacity="1"/>
    <rect x="701" y="79" width="11" height="17" opacity="1"/>
    <rect x="723" y="79" width="11" height="17" opacity="0.42"/>
    <rect x="734" y="79" width="11" height="17" opacity="1"/>
    <rect x="745" y="79" width="11" height="17" opacity="1"/>
    <rect x="756" y="79" width="11" height="17" opacity="1"/>
    <rect x="822" y="79" width="11" height="17" opacity="0.42"/>
    <rect x="833" y="79" width="11" height="17" opacity="1"/>
    <rect x="844" y="79" width="11" height="17" opacity="1"/>
    <rect x="888" y="79" width="11" height="17" opacity="0.42"/>
    <rect x="899" y="79" width="11" height="17" opacity="1"/>
    <rect x="910" y="79" width="11" height="17" opacity="1"/>
    <rect x="954" y="79" width="11" height="17" opacity="0.42"/>
    <rect x="965" y="79" width="11" height="17" opacity="1"/>
    <rect x="976" y="79" width="11" height="17" opacity="1"/>
    <rect x="30" y="96" width="11" height="17" opacity="0.42"/>
    <rect x="41" y="96" width="11" height="17" opacity="1"/>
    <rect x="52" y="96" width="11" height="17" opacity="1"/>
    <rect x="85" y="96" width="11" height="17" opacity="0.42"/>
    <rect x="96" y="96" width="11" height="17" opacity="1"/>
    <rect x="107" y="96" width="11" height="17" opacity="1"/>
    <rect x="118" y="96" width="11" height="17" opacity="1"/>
    <rect x="129" y="96" width="11" height="17" opacity="1"/>
    <rect x="140" y="96" width="11" height="17" opacity="1"/>
    <rect x="151" y="96" width="11" height="17" opacity="1"/>
    <rect x="162" y="96" width="11" height="17" opacity="1"/>
    <rect x="228" y="96" width="11" height="17" opacity="0.42"/>
    <rect x="239" y="96" width="11" height="17" opacity="1"/>
    <rect x="250" y="96" width="11" height="17" opacity="1"/>
    <rect x="261" y="96" width="11" height="17" opacity="1"/>
    <rect x="316" y="96" width="11" height="17" opacity="0.42"/>
    <rect x="327" y="96" width="11" height="17" opacity="1"/>
    <rect x="338" y="96" width="11" height="17" opacity="1"/>
    <rect x="393" y="96" width="11" height="17" opacity="0.42"/>
    <rect x="404" y="96" width="11" height="17" opacity="1"/>
    <rect x="415" y="96" width="11" height="17" opacity="1"/>
    <rect x="448" y="96" width="11" height="17" opacity="0.42"/>
    <rect x="459" y="96" width="11" height="17" opacity="1"/>
    <rect x="470" y="96" width="11" height="17" opacity="1"/>
    <rect x="481" y="96" width="11" height="17" opacity="1"/>
    <rect x="492" y="96" width="11" height="17" opacity="1"/>
    <rect x="503" y="96" width="11" height="17" opacity="1"/>
    <rect x="514" y="96" width="11" height="17" opacity="1"/>
    <rect x="525" y="96" width="11" height="17" opacity="1"/>
    <rect x="558" y="96" width="11" height="17" opacity="0.42"/>
    <rect x="569" y="96" width="11" height="17" opacity="1"/>
    <rect x="580" y="96" width="11" height="17" opacity="1"/>
    <rect x="602" y="96" width="11" height="17" opacity="0.42"/>
    <rect x="613" y="96" width="11" height="17" opacity="1"/>
    <rect x="624" y="96" width="11" height="17" opacity="1"/>
    <rect x="679" y="96" width="11" height="17" opacity="0.42"/>
    <rect x="690" y="96" width="11" height="17" opacity="1"/>
    <rect x="701" y="96" width="11" height="17" opacity="1"/>
    <rect x="723" y="96" width="11" height="17" opacity="0.42"/>
    <rect x="734" y="96" width="11" height="17" opacity="1"/>
    <rect x="745" y="96" width="11" height="17" opacity="1"/>
    <rect x="822" y="96" width="11" height="17" opacity="0.42"/>
    <rect x="833" y="96" width="11" height="17" opacity="1"/>
    <rect x="844" y="96" width="11" height="17" opacity="1"/>
    <rect x="888" y="96" width="11" height="17" opacity="0.42"/>
    <rect x="899" y="96" width="11" height="17" opacity="1"/>
    <rect x="910" y="96" width="11" height="17" opacity="1"/>
    <rect x="954" y="96" width="11" height="17" opacity="0.42"/>
    <rect x="965" y="96" width="11" height="17" opacity="1"/>
    <rect x="976" y="96" width="11" height="17" opacity="1"/>
    <rect x="30" y="113" width="11" height="17" opacity="0.42"/>
    <rect x="41" y="113" width="11" height="17" opacity="1"/>
    <rect x="52" y="113" width="11" height="17" opacity="1"/>
    <rect x="74" y="113" width="11" height="17" opacity="0.42"/>
    <rect x="85" y="113" width="11" height="17" opacity="1"/>
    <rect x="96" y="113" width="11" height="17" opacity="1"/>
    <rect x="140" y="113" width="11" height="17" opacity="0.42"/>
    <rect x="151" y="113" width="11" height="17" opacity="1"/>
    <rect x="162" y="113" width="11" height="17" opacity="1"/>
    <rect x="206" y="113" width="11" height="17" opacity="0.42"/>
    <rect x="217" y="113" width="11" height="17" opacity="1"/>
    <rect x="228" y="113" width="11" height="17" opacity="1"/>
    <rect x="239" y="113" width="11" height="17" opacity="1"/>
    <rect x="316" y="113" width="11" height="17" opacity="0.42"/>
    <rect x="327" y="113" width="11" height="17" opacity="1"/>
    <rect x="338" y="113" width="11" height="17" opacity="1"/>
    <rect x="382" y="113" width="11" height="17" opacity="0.42"/>
    <rect x="393" y="113" width="11" height="17" opacity="1"/>
    <rect x="404" y="113" width="11" height="17" opacity="1"/>
    <rect x="415" y="113" width="11" height="17" opacity="1"/>
    <rect x="514" y="113" width="11" height="17" opacity="0.42"/>
    <rect x="525" y="113" width="11" height="17" opacity="1"/>
    <rect x="536" y="113" width="11" height="17" opacity="1"/>
    <rect x="558" y="113" width="11" height="17" opacity="0.42"/>
    <rect x="569" y="113" width="11" height="17" opacity="1"/>
    <rect x="580" y="113" width="11" height="17" opacity="1"/>
    <rect x="602" y="113" width="11" height="17" opacity="0.42"/>
    <rect x="613" y="113" width="11" height="17" opacity="1"/>
    <rect x="624" y="113" width="11" height="17" opacity="1"/>
    <rect x="668" y="113" width="11" height="17" opacity="0.42"/>
    <rect x="679" y="113" width="11" height="17" opacity="1"/>
    <rect x="690" y="113" width="11" height="17" opacity="1"/>
    <rect x="701" y="113" width="11" height="17" opacity="1"/>
    <rect x="723" y="113" width="11" height="17" opacity="0.42"/>
    <rect x="734" y="113" width="11" height="17" opacity="1"/>
    <rect x="745" y="113" width="11" height="17" opacity="1"/>
    <rect x="822" y="113" width="11" height="17" opacity="0.42"/>
    <rect x="833" y="113" width="11" height="17" opacity="1"/>
    <rect x="844" y="113" width="11" height="17" opacity="1"/>
    <rect x="888" y="113" width="11" height="17" opacity="0.42"/>
    <rect x="899" y="113" width="11" height="17" opacity="1"/>
    <rect x="910" y="113" width="11" height="17" opacity="1"/>
    <rect x="954" y="113" width="11" height="17" opacity="0.42"/>
    <rect x="965" y="113" width="11" height="17" opacity="1"/>
    <rect x="976" y="113" width="11" height="17" opacity="1"/>
    <rect x="30" y="130" width="11" height="17" opacity="0.42"/>
    <rect x="41" y="130" width="11" height="17" opacity="1"/>
    <rect x="52" y="130" width="11" height="17" opacity="1"/>
    <rect x="85" y="130" width="11" height="17" opacity="0.42"/>
    <rect x="96" y="130" width="11" height="17" opacity="1"/>
    <rect x="107" y="130" width="11" height="17" opacity="1"/>
    <rect x="118" y="130" width="11" height="17" opacity="1"/>
    <rect x="129" y="130" width="11" height="17" opacity="1"/>
    <rect x="140" y="130" width="11" height="17" opacity="1"/>
    <rect x="151" y="130" width="11" height="17" opacity="0.42"/>
    <rect x="162" y="130" width="11" height="17" opacity="1"/>
    <rect x="173" y="130" width="11" height="17" opacity="1"/>
    <rect x="195" y="130" width="11" height="17" opacity="0.42"/>
    <rect x="206" y="130" width="11" height="17" opacity="1"/>
    <rect x="217" y="130" width="11" height="17" opacity="1"/>
    <rect x="228" y="130" width="11" height="17" opacity="1"/>
    <rect x="239" y="130" width="11" height="17" opacity="1"/>
    <rect x="250" y="130" width="11" height="17" opacity="1"/>
    <rect x="261" y="130" width="11" height="17" opacity="1"/>
    <rect x="272" y="130" width="11" height="17" opacity="1"/>
    <rect x="283" y="130" width="11" height="17" opacity="1"/>
    <rect x="294" y="130" width="11" height="17" opacity="1"/>
    <rect x="327" y="130" width="11" height="17" opacity="0.42"/>
    <rect x="338" y="130" width="11" height="17" opacity="1"/>
    <rect x="349" y="130" width="11" height="17" opacity="1"/>
    <rect x="360" y="130" width="11" height="17" opacity="1"/>
    <rect x="371" y="130" width="11" height="17" opacity="1"/>
    <rect x="382" y="130" width="11" height="17" opacity="1"/>
    <rect x="393" y="130" width="11" height="17" opacity="0.42"/>
    <rect x="404" y="130" width="11" height="17" opacity="1"/>
    <rect x="415" y="130" width="11" height="17" opacity="1"/>
    <rect x="448" y="130" width="11" height="17" opacity="0.42"/>
    <rect x="459" y="130" width="11" height="17" opacity="1"/>
    <rect x="470" y="130" width="11" height="17" opacity="1"/>
    <rect x="481" y="130" width="11" height="17" opacity="1"/>
    <rect x="492" y="130" width="11" height="17" opacity="1"/>
    <rect x="503" y="130" width="11" height="17" opacity="1"/>
    <rect x="514" y="130" width="11" height="17" opacity="1"/>
    <rect x="525" y="130" width="11" height="17" opacity="1"/>
    <rect x="558" y="130" width="11" height="17" opacity="0.42"/>
    <rect x="569" y="130" width="11" height="17" opacity="1"/>
    <rect x="580" y="130" width="11" height="17" opacity="1"/>
    <rect x="613" y="130" width="11" height="17" opacity="0.42"/>
    <rect x="624" y="130" width="11" height="17" opacity="1"/>
    <rect x="635" y="130" width="11" height="17" opacity="1"/>
    <rect x="646" y="130" width="11" height="17" opacity="1"/>
    <rect x="657" y="130" width="11" height="17" opacity="1"/>
    <rect x="668" y="130" width="11" height="17" opacity="1"/>
    <rect x="679" y="130" width="11" height="17" opacity="0.42"/>
    <rect x="690" y="130" width="11" height="17" opacity="1"/>
    <rect x="701" y="130" width="11" height="17" opacity="1"/>
    <rect x="723" y="130" width="11" height="17" opacity="0.42"/>
    <rect x="734" y="130" width="11" height="17" opacity="1"/>
    <rect x="745" y="130" width="11" height="17" opacity="1"/>
    <rect x="822" y="130" width="11" height="17" opacity="0.42"/>
    <rect x="833" y="130" width="11" height="17" opacity="1"/>
    <rect x="844" y="130" width="11" height="17" opacity="1"/>
    <rect x="888" y="130" width="11" height="17" opacity="0.42"/>
    <rect x="899" y="130" width="11" height="17" opacity="1"/>
    <rect x="910" y="130" width="11" height="17" opacity="1"/>
    <rect x="954" y="130" width="11" height="17" opacity="0.42"/>
    <rect x="965" y="130" width="11" height="17" opacity="1"/>
    <rect x="976" y="130" width="11" height="17" opacity="1"/>
    <rect x="393" y="147" width="11" height="17" opacity="0.42"/>
    <rect x="404" y="147" width="11" height="17" opacity="1"/>
    <rect x="415" y="147" width="11" height="17" opacity="1"/>
    <rect x="327" y="164" width="11" height="17" opacity="0.42"/>
    <rect x="338" y="164" width="11" height="17" opacity="1"/>
    <rect x="349" y="164" width="11" height="17" opacity="1"/>
    <rect x="360" y="164" width="11" height="17" opacity="1"/>
    <rect x="371" y="164" width="11" height="17" opacity="1"/>
    <rect x="382" y="164" width="11" height="17" opacity="1"/>
    <rect x="393" y="164" width="11" height="17" opacity="1"/>
    <rect x="404" y="164" width="11" height="17" opacity="1"/>
  </g>
</svg>
